<svg xmlns="http://www.w3.org/2000/svg" viewBox="0 0 1080 1080" width="1080" height="1080">
<defs>
  <radialGradient id="glow" cx="50%" cy="50%" r="50%">
    <stop offset="0%" stop-color="#FFD580" stop-opacity="0.9"/>
    <stop offset="100%" stop-color="#FF8C00" stop-opacity="0.0"/>
  </radialGradient>
  <filter id="blur" x="-50%" y="-50%" width="200%" height="200%">
    <feGaussianBlur stdDeviation="6"/>
  </filter>
</defs>
<rect width="100%" height="100%" fill="black"/>
<g stroke="url(#glow)" stroke-width="3" fill="none" filter="url(#blur)">
<line x1="540" y1="540" x2="680.0" y2="540.0" opacity="0.4"/><line x1="540" y1="540" x2="610.0" y2="661.2435565298214" opacity="0.4"/><line x1="540" y1="540" x2="470.0" y2="661.2435565298214" opacity="0.4"/><line x1="540" y1="540" x2="400.0" y2="540.0" opacity="0.4"/><line x1="540" y1="540" x2="469.99999999999994" y2="418.7564434701786" opacity="0.4"/><line x1="540" y1="540" x2="610.0" y2="418.7564434701786" opacity="0.4"/><line x1="540" y1="540" x2="750.0" y2="661.2435565298214" opacity="0.4"/><line x1="540" y1="540" x2="540.0" y2="782.4871130596428" opacity="0.4"/><line x1="540" y1="540" x2="330.0" y2="661.2435565298214" opacity="0.4"/><line x1="540" y1="540" x2="330.0" y2="418.75644347017857" opacity="0.4"/><line x1="540" y1="540" x2="540.0" y2="297.5128869403572" opacity="0.4"/><line x1="540" y1="540" x2="749.9999999999999" y2="418.7564434701785" opacity="0.4"/><line x1="680.0" y1="540.0" x2="610.0" y2="661.2435565298214" opacity="0.4"/><line x1="680.0" y1="540.0" x2="470.0" y2="661.2435565298214" opacity="0.4"/><line x1="680.0" y1="540.0" x2="400.0" y2="540.0" opacity="0.4"/><line x1="680.0" y1="540.0" x2="469.99999999999994" y2="418.7564434701786" opacity="0.4"/><line x1="680.0" y1="540.0" x2="610.0" y2="418.7564434701786" opacity="0.4"/><line x1="680.0" y1="540.0" x2="750.0" y2="661.2435565298214" opacity="0.4"/><line x1="680.0" y1="540.0" x2="540.0" y2="782.4871130596428" opacity="0.4"/><line x1="680.0" y1="540.0" x2="330.0" y2="661.2435565298214" opacity="0.4"/><line x1="680.0" y1="540.0" x2="330.0" y2="418.75644347017857" opacity="0.4"/><line x1="680.0" y1="540.0" x2="540.0" y2="297.5128869403572" opacity="0.4"/><line x1="680.0" y1="540.0" x2="749.9999999999999" y2="418.7564434701785" opacity="0.4"/><line x1="610.0" y1="661.2435565298214" x2="470.0" y2="661.2435565298214" opacity="0.4"/><line x1="610.0" y1="661.2435565298214" x2="400.0" y2="540.0" opacity="0.4"/><line x1="610.0" y1="661.2435565298214" x2="469.99999999999994" y2="418.7564434701786" opacity="0.4"/><line x1="610.0" y1="661.2435565298214" x2="610.0" y2="418.7564434701786" opacity="0.4"/><line x1="610.0" y1="661.2435565298214" x2="750.0" y2="661.2435565298214" opacity="0.4"/><line x1="610.0" y1="661.2435565298214" x2="540.0" y2="782.4871130596428" opacity="0.4"/><line x1="610.0" y1="661.2435565298214" x2="330.0" y2="661.2435565298214" opacity="0.4"/><line x1="610.0" y1="661.2435565298214" x2="330.0" y2="418.75644347017857" opacity="0.4"/><line x1="610.0" y1="661.2435565298214" x2="540.0" y2="297.5128869403572" opacity="0.4"/><line x1="610.0" y1="661.2435565298214" x2="749.9999999999999" y2="418.7564434701785" opacity="0.4"/><line x1="470.0" y1="661.2435565298214" x2="400.0" y2="540.0" opacity="0.4"/><line x1="470.0" y1="661.2435565298214" x2="469.99999999999994" y2="418.7564434701786" opacity="0.4"/><line x1="470.0" y1="661.2435565298214" x2="610.0" y2="418.7564434701786" opacity="0.4"/><line x1="470.0" y1="661.2435565298214" x2="750.0" y2="661.2435565298214" opacity="0.4"/><line x1="470.0" y1="661.2435565298214" x2="540.0" y2="782.4871130596428" opacity="0.4"/><line x1="470.0" y1="661.2435565298214" x2="330.0" y2="661.2435565298214" opacity="0.4"/><line x1="470.0" y1="661.2435565298214" x2="330.0" y2="418.75644347017857" opacity="0.4"/><line x1="470.0" y1="661.2435565298214" x2="540.0" y2="297.5128869403572" opacity="0.4"/><line x1="470.0" y1="661.2435565298214" x2="749.9999999999999" y2="418.7564434701785" opacity="0.4"/><line x1="400.0" y1="540.0" x2="469.99999999999994" y2="418.7564434701786" opacity="0.4"/><line x1="400.0" y1="540.0" x2="610.0" y2="418.7564434701786" opacity="0.4"/><line x1="400.0" y1="540.0" x2="750.0" y2="661.2435565298214" opacity="0.4"/><line x1="400.0" y1="540.0" x2="540.0" y2="782.4871130596428" opacity="0.4"/><line x1="400.0" y1="540.0" x2="330.0" y2="661.2435565298214" opacity="0.4"/><line x1="400.0" y1="540.0" x2="330.0" y2="418.75644347017857" opacity="0.4"/><line x1="400.0" y1="540.0" x2="540.0" y2="297.5128869403572" opacity="0.4"/><line x1="400.0" y1="540.0" x2="749.9999999999999" y2="418.7564434701785" opacity="0.4"/><line x1="469.99999999999994" y1="418.7564434701786" x2="610.0" y2="418.7564434701786" opacity="0.4"/><line x1="469.99999999999994" y1="418.7564434701786" x2="750.0" y2="661.2435565298214" opacity="0.4"/><line x1="469.99999999999994" y1="418.7564434701786" x2="540.0" y2="782.4871130596428" opacity="0.4"/><line x1="469.99999999999994" y1="418.7564434701786" x2="330.0" y2="661.2435565298214" opacity="0.4"/><line x1="469.99999999999994" y1="418.7564434701786" x2="330.0" y2="418.75644347017857" opacity="0.4"/><line x1="469.99999999999994" y1="418.7564434701786" x2="540.0" y2="297.5128869403572" opacity="0.4"/><line x1="469.99999999999994" y1="418.7564434701786" x2="749.9999999999999" y2="418.7564434701785" opacity="0.4"/><line x1="610.0" y1="418.7564434701786" x2="750.0" y2="661.2435565298214" opacity="0.4"/><line x1="610.0" y1="418.7564434701786" x2="540.0" y2="782.4871130596428" opacity="0.4"/><line x1="610.0" y1="418.7564434701786" x2="330.0" y2="661.2435565298214" opacity="0.4"/><line x1="610.0" y1="418.7564434701786" x2="330.0" y2="418.75644347017857" opacity="0.4"/><line x1="610.0" y1="418.7564434701786" x2="540.0" y2="297.5128869403572" opacity="0.4"/><line x1="610.0" y1="418.7564434701786" x2="749.9999999999999" y2="418.7564434701785" opacity="0.4"/><line x1="750.0" y1="661.2435565298214" x2="540.0" y2="782.4871130596428" opacity="0.4"/><line x1="750.0" y1="661.2435565298214" x2="330.0" y2="661.2435565298214" opacity="0.4"/><line x1="750.0" y1="661.2435565298214" x2="330.0" y2="418.75644347017857" opacity="0.4"/><line x1="750.0" y1="661.2435565298214" x2="540.0" y2="297.5128869403572" opacity="0.4"/><line x1="750.0" y1="661.2435565298214" x2="749.9999999999999" y2="418.7564434701785" opacity="0.4"/><line x1="540.0" y1="782.4871130596428" x2="330.0" y2="661.2435565298214" opacity="0.4"/><line x1="540.0" y1="782.4871130596428" x2="330.0" y2="418.75644347017857" opacity="0.4"/><line x1="540.0" y1="782.4871130596428" x2="540.0" y2="297.5128869403572" opacity="0.4"/><line x1="540.0" y1="782.4871130596428" x2="749.9999999999999" y2="418.7564434701785" opacity="0.4"/><line x1="330.0" y1="661.2435565298214" x2="330.0" y2="418.75644347017857" opacity="0.4"/><line x1="330.0" y1="661.2435565298214" x2="540.0" y2="297.5128869403572" opacity="0.4"/><line x1="330.0" y1="661.2435565298214" x2="749.9999999999999" y2="418.7564434701785" opacity="0.4"/><line x1="330.0" y1="418.75644347017857" x2="540.0" y2="297.5128869403572" opacity="0.4"/><line x1="330.0" y1="418.75644347017857" x2="749.9999999999999" y2="418.7564434701785" opacity="0.4"/><line x1="540.0" y1="297.5128869403572" x2="749.9999999999999" y2="418.7564434701785" opacity="0.4"/><circle cx="540" cy="540" r="6"/><circle cx="680.0" cy="540.0" r="6"/><circle cx="610.0" cy="661.2435565298214" r="6"/><circle cx="470.0" cy="661.2435565298214" r="6"/><circle cx="400.0" cy="540.0" r="6"/><circle cx="469.99999999999994" cy="418.7564434701786" r="6"/><circle cx="610.0" cy="418.7564434701786" r="6"/><circle cx="750.0" cy="661.2435565298214" r="6"/><circle cx="540.0" cy="782.4871130596428" r="6"/><circle cx="330.0" cy="661.2435565298214" r="6"/><circle cx="330.0" cy="418.75644347017857" r="6"/><circle cx="540.0" cy="297.5128869403572" r="6"/><circle cx="749.9999999999999" cy="418.7564434701785" r="6"/></g></svg>