<svg xmlns="http://www.w3.org/2000/svg" viewBox="0 0 1080 1080" width="1080" height="1080">
<defs>
  <radialGradient id="glow" cx="50%" cy="50%" r="50%">
    <stop offset="0%" stop-color="#FFD580" stop-opacity="0.9"/>
    <stop offset="100%" stop-color="#FF8C00" stop-opacity="0.0"/>
  </radialGradient>
  <filter id="blur" x="-50%" y="-50%" width="200%" height="200%">
    <feGaussianBlur stdDeviation="6"/>
  </filter>
</defs>
<rect width="100%" height="100%" fill="black"/>
<g stroke="url(#glow)" stroke-width="3" fill="none" filter="url(#blur)">
<circle cx="540" cy="540" r="380" opacity="0.6"/><circle cx="540" cy="540" r="190" opacity="0.6"/><path d="M730.0,540.0 L730.0558442893746,549.9604047389696 L729.5890239870384,559.9266093809237 L728.5990886366416,569.8711610994321 L727.0870311003525,579.7665760637434 L725.055289553214,589.5854153908913 L722.50774547704,599.3003612205524 L719.4497176465371,608.8842927017658 L715.8879521114554,618.3103616801941 L711.8306081897267,627.5520678747716 L707.287240497694,636.5833333333333 L702.2687770546404,645.3785759581575 L696.7874935098648,653.9127818942814 L690.8569835514891,662.1615765759576 L684.4921255669881,670.1012942297074 L677.7090456360802,677.7090456360801 L670.5250769470679,684.9627839564571 L662.9587157379541,691.8413684360012 L655.029573873637,698.3246257991772 L646.7583281801956,704.3934091601022 L638.1666666666667,710.0296542763448 L629.2772317737819,715.2164329816426 L620.1135607978301,719.9380036403377 L610.7000236461287,724.179858474123 L601.0617580884896,727.9287676199224 L591.2246026765406,731.1728197863781 L581.2150275097738,733.9014593854647 L571.0600630337378,736.1055200251647 L560.7872270618274,737.7772542589039 L550.4244502176571,738.9103594975319 L540.0,739.5 L529.5424036767224,739.5428248695431 L519.0803702180336,739.0369819930371 L508.64271148268574,737.9821278722953 L498.25826287348787,736.3794333073237 L487.9558036806348,734.2315849029601 L477.7639773328856,731.542782381844 L467.71121177755384,728.3187316982605 L457.8256402105858,724.5666339590601 L448.13502237770274,720.2951701695163 L438.66666666666674,715.5144818336462 L429.44735320919983,710.236147450122 L420.5032582089402,704.4731549564268 L411.8598797090689,698.2398701853302 L403.5419650098835,691.5520014090232 L395.57343994264767,684.4265600573524 L387.9773402015078,676.8818177074771 L380.77574493015766,668.9372594529275 L373.98971275426084,660.6135337704155 L367.6392204444163,651.9323990128383 L361.74310438770306,642.9166666666667 L356.319005038568,633.5901415213076 L351.3833145120576,623.9775589070501 L346.9511274741536,614.104519166809 L343.0361954752737,603.9974195350517 L339.6508848638758,593.6833836050146 L336.80613840756405,583.1901885725425 L334.5114407391816,572.5461904516201 L332.77478773509745,561.7802474628701 L331.6026599222997,550.921641801965 L331.0,540.0 L330.97019455028845,529.0452120924144 L331.51506000096435,518.0873498169909 L332.63483289205084,507.15658406480355 L334.3281644857052,496.28310181071913 L336.5921197472937,485.49702275216083 L339.4221807133521,474.8283158863236 L342.81225425001605,464.30671625687353 L346.75468419333515,453.9616421013658 L351.2402678506943,443.822112630177 L356.25827683040154,433.91666666666674 L361.7964821543965,424.273282376557 L367.84118359701114,414.91929831216174 L374.3772431808286,405.8813359940954 L381.3881227489415,397.18522424947435 L388.8559255213754,388.85592552137547 L396.76144153211374,380.91746435947243 L405.08419683209894,373.3928582963165 L413.802506332806,366.30405130769884 L422.89353015451877,359.67185004893486 L432.33333333333326,353.51586305175096 L442.0969487311667,347.8544430587785 L452.1584429837295,342.704632664453 L462.49098531251053,338.0821134224302 L473.06691901838633,334.0011585704698 L483.8578354665116,330.4745895141296 L494.83465036468886,327.5137362005929 L505.96768213049774,325.1284015035278 L517.2267321360872,323.3268297290988 L528.5811666137271,322.1156793421312 L540.0,321.5 L551.4519794918936,321.48321397012 L562.9056705840517,322.0671019949657 L574.3295433530786,323.251793656397 L585.6920592520496,325.035762278734 L596.961758176313,327.41582439754757 L608.1073455602384,330.3871438085481 L619.0977792638067,333.94324019829253 L629.9023560078542,338.07600234573044 L640.4907971173486,342.77570587090474 L650.8333333333331,348.0310354944494 L660.9007884560856,353.8291117589149 L670.6646615846167,360.15552215044914 L680.0972077208778,366.9943565469872 L689.1715165109349,374.3282469069063 L697.8615888998967,382.1384111001032 L706.1424114825628,390.4047007717046 L713.9900283375249,399.1056531171256 L721.3816101388632,408.2185464360275 L728.2955203465467,417.71945932187623 L734.7113782842011,427.58333333333326 L740.610118921011,437.784038983641 L745.9740491831518,448.2944448745096 L750.7869006292931,459.08648979183016 L755.0338783343342,470.13125757182434 L758.7017058356165,481.3990545380376 L761.7786660063782,492.8594893019199 L764.254637732126,504.48155471261555 L766.1211282768998,516.2337117350444 L767.3713012380372,528.083975029419 L768.0,540.0 L768.0037666100485,551.9491710762013 L767.3808560110328,563.8986909850946 L766.1312455792568,575.8156707709608 L764.2566399282372,587.6672203148183 L761.7604709521986,599.4205391047872 L758.6478930962558,611.0430070068004 L754.9257738534308,622.5022747844872 L750.6026795018743,633.7663541170746 L745.6888561088847,644.8037068648744 L740.1962058415027,655.5833333333334 L734.1382586365667,666.0748592887284 L727.5301392961128,676.2486214813953 L720.388530086854,686.0757514358514 L712.731628935129,695.5282572713438 L704.579103321169,704.5791033211689 L695.9520399887047,713.2022873245978 L686.872890597848,721.372914971366 L677.365413460751,729.0672715854251 L667.4546115107668,736.2628907420282 L657.1666666666667,742.9386196201534 L646.5288707638847,749.0746809008004 L635.5695532347105,754.6527310307565 L624.31800572885,759.6559146810166 L612.8044038747377,764.0689152391382 L601.0597263904364,767.8780011853627 L589.1156717608486,771.0710682133493 L577.0045727052667,773.6376769677798 L564.7593086659982,775.5690862828983 L552.413216554889,776.8582818182057 L540.0000000000001,777.5 L527.5536373394908,777.4907471902169 L515.1082886138627,776.8288140170315 L502.6982018111568,775.5142848149105 L490.3576186224132,773.5490421352083 L478.12067996673875,770.9367663019447 L466.02133154663767,767.6829300010597 L454.0932296948324,763.7947879051542 L442.36964777370576,759.2813613494791 L430.8833833875998,754.1534180886741 L419.66666666666686,748.423447177455 L408.75106987862887,742.1056290320482 L398.1674186218263,735.2158007426749 L387.9457048491751,727.7714167206951 L378.11500196824716,719.7915047771645 L368.70338225755876,711.2966177424411 L359.73783683336694,702.3087807491139 L351.2441983947928,692.8514343128215 L343.24706696801286,682.9493733575296 L335.76973886249016,672.6286823434093 L328.8341390438943,661.9166666666666 L322.4607571194101,650.8417805114107 L316.6685871216388,639.4335513439304 L311.47507126726003,627.7225012495305 L306.89604785605786,615.7400653212997 L302.94570346489115,603.5185073189103 L299.63652957967946,591.0908328236173 L296.9792837965664,578.490700123149 L294.98295571110305,565.7523290670407 L293.65473760162587,552.910408139197 L293.0,540.0000000000001 L293.02227222961466,527.0564457551826 L293.72322797696995,514.1152682128201 L295.1026759494356,501.2120743932751 L297.1585556578205,488.38245755964454 L299.88693834830906,475.66189903826523 L303.2820330941363,463.0856701000757 L307.33619804312224,450.6887341741525 L312.0399568029163,438.5056496644853 L317.3820199315363,426.5704736400741 L323.3493114865928,414.91666666666686 L329.92700057247055,403.57699904598576 L337.0985378107631,392.5834587250478 L344.84569664546365,381.96716113420166 L353.14861938080026,371.758261207838 L361.98586783628673,361.98586783628656 L371.33447849047695,352.6779609913317 L381.17002197220506,343.8613117609516 L391.46666674569195,335.56140552145087 L402.19724682394786,327.8023684670087 L413.33333333333303,320.60689770794244 L424.84530974106406,313.99619513962045 L436.70245054684904,307.9899052740342 L448.87300322978905,302.60605721553657 L461.3242732321383,297.86101095125395 L474.0227117526157,293.769408115145 L486.9340061136135,290.3441273727084 L500.02317245896865,287.5962445609126 L513.2546505319166,285.53499770510444 L526.592400276495,284.1677570214574 L539.9999999999999,283.5 L553.4407458291254,283.5352916494462 L566.8777521882226,284.2752699709713 L580.2740530246072,285.71963671378177 L593.5927035031247,287.8661534508494 L606.7968818902087,290.71064299856295 L619.8499913464863,294.2469961893323 L632.7157613465282,298.4671839913989 L645.3583484447348,303.3612749553116 L657.7424361074511,308.91745795174666 L669.833333333333,315.12207015064064 L681.5970717866567,321.95963017698875 L693.0005011717307,329.4128763642011 L704.0113825807714,337.4628100116221 L714.5984795525715,346.0887435387653 L724.7316465849854,355.2683534150142 L734.3819148507035,364.9777377300678 L743.5215748728899,375.19147825723195 L752.1242559251111,385.8827068489135 L760.1650019284729,397.02317599130515 L767.62034362801,408.58333333333337 L774.468366840169,420.5323999935384 L780.6887765735704,432.8384524376289 L786.2629568361867,445.4685077091087 L791.17402595355,458.38861178557624 L795.4068872346011,471.5639308241418 L798.9482748342627,484.95884505084473 L801.7867946747413,498.5370450410869 L803.9129603008942,512.2616301308734 L805.319223558711,526.095208692187 L806.0,539.9999999999999 L805.9516889307222,553.9379374134332 L805.1726880350272,567.8707725892649 L803.6634025218721,581.7601804424897 L801.4262487561217,595.5678645658933 L798.4656523511833,609.2556628186826 L794.7880407154717,622.7856527930483 L790.4018300603245,636.1202568672086 L785.3174068922931,649.2223465539548 L779.5471040280429,662.0553458549768 L773.1051711853113,674.5833333333335 L766.0077402184928,686.7711426192993 L758.2727850823609,698.5844610685092 L749.9200766222189,709.9899262957452 L740.97113230327,720.9552203129806 L731.449161006258,731.4491610062576 L721.379003030341,741.4417906927391 L710.7870654577418,750.9044615067307 L699.7012530478651,759.8099173716731 L688.1508948413381,768.1323723239541 L676.1666666666666,775.8475849639622 L663.7805097539878,782.9329288199583 L651.0255456715912,789.3674584211751 L637.9359878115712,795.1319708879104 L624.5470496609857,800.209062858354 L610.8948501043322,804.5831825843472 L597.0163160119235,808.240677041234 L582.9490823767953,811.169833910395 L568.7313902701693,813.3609183068927 L554.4019828921209,814.8062041388795 L540.0000000000001,815.5 L525.5648710022588,815.4386695108907 L511.13620700969244,814.6206460410259 L496.7536921396281,813.0464417575258 L482.45697437133845,810.7186509630931 L468.28555625284343,807.6419477009294 L454.27868576038975,803.8230776202756 L440.47524761211105,799.2708441120479 L426.91365533682546,793.9960887398979 L413.6317443974971,788.0116660078322 L400.66666666666697,781.3324125212637 L388.0547865480579,773.9751106139744 L375.8315790347124,765.9584465289229 L364.03152998928135,757.30296325606 L352.68803892661026,748.0310081453052 L341.83332457247036,738.1666754275302 L331.49833346522564,727.7357437907502 L321.712651859428,716.7656091727154 L312.5044211817649,705.2852129446436 L303.9002572805641,693.3249656739804 L295.92517370008574,680.9166666666666 L288.6025092002522,668.0934195015135 L281.9538597312199,654.8895437808109 L275.99901506036645,641.340483332252 L270.755900236842,627.4827111075477 L266.24052206590676,613.3536310328067 L262.4669207517949,598.9914770746923 L259.44712685395126,584.435209794678 L257.1911236871087,569.724410671212 L255.70681528095207,554.899174476429 L255.0,540.0000000000002 L255.07434990894086,525.0676794179503 L255.9313959529755,510.1431866086498 L257.5705190068204,495.2675647217459 L259.98894682993597,480.48181330856926 L263.18175694932444,465.8267753243695 L267.14188547492057,451.3430243138273 L271.8601418362288,437.0707520914303 L277.3252294124973,423.0496572276054 L283.52377201237806,409.31883464997185 L290.4403461427846,395.91666666666606 L298.0575189905441,382.88071571541514 L306.3558920245151,370.24761913793395 L315.314150110098,358.05298627430875 L324.9091160126595,346.3312981662011 L335.11581015119793,335.1158101511978 L345.9075154488399,324.4384576231911 L357.25584711231073,314.32976522558715 L369.1308271585783,304.8187597352026 L381.5009634933764,295.9328868850829 L394.3333333333329,287.69793236413386 L407.5936707509617,280.13794722046225 L421.24645810996856,273.27517788361547 L435.25502114706757,267.13000100864303 L449.5816274458902,261.7208633320381 L464.18758803871987,257.0642267161605 L479.03336186253904,253.17451854482374 L494.0786627874403,250.06408761829732 L509.2825689277447,247.74316568111016 L524.6036339392635,246.21983470078357 L540.0000000000003,245.5 L555.4295121663566,245.58736932877235 L570.8498337923929,246.4834379469769 L586.2185626961368,248.18747977116664 L601.4933477541989,250.69654462296467 L616.6320056041044,254.00546159957833 L631.5926371327342,258.1068485701164 L646.3337434292496,262.99112778450524 L660.8143408816152,268.6465475648928 L674.9940750975534,275.0592100325884 L688.8333333333335,282.2131048068322 L702.293355117228,290.09014859506283 L715.3363407588441,298.6702305779528 L727.9255574406651,307.93126347625713 L740.0254425942084,317.8492401706246 L751.601704270074,328.3982957299253 L762.6214182188445,339.5507746884311 L773.0531214082544,351.2773033973377 L782.8669017113591,363.54686726179943 L792.0344835103989,376.326892660734 L800.5293089718186,389.5833333333333 L808.3266147593265,403.2807610034346 L815.4035039639896,417.3824600007489 L821.7390130430806,431.8505256263877 L827.3141735727656,446.6459659993277 L832.1120686335855,461.7288071102454 L836.1178836621475,477.0582007997708 L839.3189516173563,492.59253536955754 L841.7047923248886,508.28954852670245 L843.2671458793849,524.1064423549561 L844.0,539.9999999999998 L843.8996112513961,555.9267037506651 L842.9645200590217,571.8428541934361 L841.1955594644872,587.7046901140185 L838.5958575840064,603.4685088169681 L835.170833750168,619.0907865325778 L830.9281883346877,634.5282985792957 L825.877886267218,649.7382389499304 L820.0321342827121,664.6783389908347 L813.4053519472009,679.3069848450795 L806.0141365291203,693.5833333333329 L797.877221800419,707.4674259498703 L789.015430868609,720.920300655623 L779.4516231575838,733.904101155639 L769.2106356714116,746.3821833546162 L758.3192186913466,758.3192186913466 L746.8059660719777,769.6812940608801 L734.7012403176362,780.4360080420953 L722.0370926349786,790.5525631579214 L708.8471781719084,800.0018539058808 L695.1666666666672,808.7565503077706 L681.0321487440907,816.7911767391163 L666.4815381084708,824.0821858115944 L651.5539698942932,830.6080270948039 L636.2896954472338,836.3492104775698 L620.729973818228,841.2883639833318 L604.9169602629985,845.4102858691185 L588.8935920483241,848.7019908530103 L572.7034718743408,851.152750330887 L556.3907492293536,852.7541264595532 L539.9999999999997,853.5 L523.5761046650275,853.3865918315646 L507.16412540552176,852.4124780650203 L490.80918246809995,850.5785987001411 L474.55633012026374,847.8882597909776 L458.4504325389478,844.347129099914 L442.53603997414183,839.9632252394915 L426.8572655293898,834.7469003189416 L411.4576628999447,828.7108161303166 L396.38010540739435,821.8699139269902 L381.66666666666754,814.2413778650728 L367.3585032174865,805.8445921959003 L353.495739447598,796.7010923151706 L340.11735512938805,786.8345097914254 L327.26107588497416,776.2705115134466 L314.9632668873809,765.0367331126183 L303.2588300970851,753.1627068323872 L292.1811053240632,740.6797840326093 L281.76177539551696,727.6210525317576 L272.030775698638,714.0212490045516 L263.01620835627705,699.9166666666667 L254.74426128109405,685.3450584916159 L247.23913234080158,670.3455362176924 L240.52295885347257,654.958465414973 L234.6157526176264,639.2253568937964 L229.5353406669222,623.1887547467026 L225.29731192391017,606.8921213257667 L221.91496991133602,590.3797194662069 L219.39929166311435,573.696492275383 L217.75889296027827,556.887940813661 L217.0,540.0000000000002 L217.126427588267,523.0789130807191 L218.13956392898115,506.1711050044785 L220.03836206420493,489.32305505021833 L222.81933800205132,472.5811690574945 L226.47657555033993,455.99165161047324 L231.00173785570433,439.6003785275804 L236.38408562933478,423.45277000871 L242.6105020220789,407.59366479072406 L249.66552409322003,392.0671956598692 L257.53138079897536,376.9166666666671 L266.1880374086179,362.18443238484423 L275.61324623826704,347.91177955082003 L285.78260357473374,334.13881141441414 L296.66961264451845,320.90433512456457 L308.245752466109,308.245752466109 L320.48055240720396,296.19895425504944 L333.3416722524177,284.7982186902216 L346.79498757146337,274.0761139489553 L360.80468016280616,264.0634053031562 L375.33333333333275,254.78896702032523 L390.34203176085794,246.27969930130484 L405.79046567308797,238.56045049319664 L421.637039064346,231.6539448017494 L437.83898165964206,225.58071571282227 L454.352464324824,220.3590453171759 L471.1327176114629,216.00490971693938 L488.13415311591143,212.53193067568213 L505.3104873235748,209.95133365711564 L522.6148676020305,208.27191238010988 L539.9999999999991,207.5 L557.4182785035895,207.6394470080986 L574.8219153965636,208.6916059229825 L592.1630723676644,210.65532282855122 L609.3939920052748,213.5269357950803 L626.467129318,217.30028020059365 L643.3352829189821,221.9667009509006 L659.9517255119708,227.51507157761154 L676.2703333184954,233.9318201744739 L692.245714087657,241.20096211343082 L707.8333333333334,249.3041394630235 L722.989638447798,258.22066701313605 L737.672180345959,267.9275847917053 L751.8397323005588,278.3997169408921 L765.4524056358441,289.60973680248287 L778.4717619551627,301.5282380448364 L790.8609215869853,314.12381164679437 L802.5846679436193,327.3631285374438 L813.6095474976071,341.21102767468534 L823.903965092325,355.6306093301629 L833.4382743156273,370.58333333333326 L842.1848626784849,386.02912201333265 L850.1182313544077,401.92646756386733 L857.2150692499742,418.2325435436662 L863.4543211919819,434.90332021308063 L868.8172500325701,451.89368339634945 L873.2874924900319,469.15755654869474 L876.8511085599719,486.6480256980298 L879.4966243488828,504.3174669225315 L881.2150682000586,522.117676017723 L882.0,539.9999999999997 L881.8475335720699,557.9154700878968 L880.756352083016,575.8149357976068 L878.7277164071024,593.6491997855471 L875.7654664118912,611.3691530680417 L871.8760151491524,628.9259102464746 L867.0683359539032,646.2709443655447 L861.353942474112,663.3562210326506 L854.7468616731305,680.1343314277161 L847.263599866359,696.5586238351822 L838.923101872929,712.5833333333328 L829.7467033823452,728.1637092804413 L819.758076654857,743.2561402427369 L808.9831696929488,757.8182760155328 L797.450139039552,771.8091463962537 L785.1892763764363,785.1892763764345 L772.2329291136143,797.9207974290209 L758.6154151775293,809.9675545774608 L744.3729322220937,821.2952089441686 L729.5434615024803,831.8713354878062 L714.1666666666663,841.6655156515798 L698.2837877341935,850.6494246582741 L681.9375305453523,858.7969132020128 L665.1719519770147,866.0840833016974 L648.0323412334819,872.4893580967856 L630.5650975321239,877.9935453823164 L612.8176045140734,882.5798946970032 L594.838101719853,886.2341477956254 L576.6755534785107,888.9445823548815 L558.3795155665844,890.7020487802272 L540.000000000001,891.5 L521.5873383277947,891.3345141522384 L503.1920438013498,890.2043100890146 L484.8646727965713,888.1107556427564 L466.655685869189,885.0578686188624 L448.6153088250521,881.0523104988986 L430.79339418789397,876.1033728587074 L413.2392834466684,870.2229565258353 L396.0016704630655,863.425543520736 L379.12846641729163,855.7281618461482 L362.66666666666663,847.1503432088809 L346.66221988691655,837.714073777827 L331.15989986048515,827.4437381014194 L316.2031802694934,816.3660563267896 L301.8341128433377,804.5100148815877 L288.09320920229294,791.906790797708 L275.0193267289434,778.589669874023 L262.64955878869836,764.5939588925032 L251.01912960926904,749.9568921188717 L240.16129411671199,734.7175323351227 L230.10724301246847,718.9166666666669 L220.88601336193608,702.5966974817187 L212.5244049503823,685.8015286545718 L205.04690264657938,668.5764474976957 L198.4756049984103,650.9680026800434 L192.83015926793735,633.0238784605973 L188.1277030960258,614.7927655768427 L184.38281296872083,596.3242291377359 L181.60745963911995,577.668573879554 L179.81097063960453,558.8767071508929 L179.0,540.0000000000003 L179.1785052675932,521.0901467434886 L180.34773190498674,502.1990234003078 L182.50620512158991,483.3785453786885 L185.64972917416645,464.680524806421 L189.7713941513553,446.15652789657753 L194.86159023648884,427.85773274133135 L200.90802942244107,409.83478792598873 L207.8957746316595,392.1376723538449 L215.80727617406262,374.8155566697654 L224.62241545516667,357.9166666666672 L234.31855582669175,341.4881490542733 L244.87060045201895,325.57593996370616 L256.2510570393688,310.22463655452043 L268.43010927637744,295.47737208292807 L281.3756947810202,281.3756947810203 L295.0535893655664,267.95945088690945 L309.42749739252383,255.26667215485674 L324.45914798435035,243.33346816270665 L340.108396832234,232.19392372123082 L356.3333333333326,221.88000167651666 L373.0903927707561,212.4214513821463 L390.3344732362075,203.84572310277792 L408.01905698162454,196.1778885948558 L426.09633587339397,189.4405680936065 L444.5173406109281,183.65386391819135 L463.2320733603891,178.83530088905457 L482.1896434443813,174.99977373306712 L501.3384057194039,172.1595016331213 L520.6261012647997,170.32399005943597 L539.9999999999989,169.5 L559.4070448408199,169.69152468742476 L578.7939970007355,170.8997738989882 L598.107582039193,173.12316588593598 L617.2946362563483,176.35732696719538 L636.3022530318957,180.59509880160908 L655.07792870523,185.8265533316847 L673.5697075946922,192.03901537071778 L691.7263257553758,199.21709278405507 L709.4973530777585,207.34271419427228 L726.8333333333333,216.3951741192148 L743.6859217783699,226.35118543121058 L760.0080199330718,237.18493900545656 L775.7539071604535,248.86817040552796 L790.8793686774816,261.3702334343426 L805.3418196402514,274.65818035974746 L819.1004249551263,288.69684860515764 L832.1162144789848,303.4489536775509 L844.352193283855,318.87518808757125 L855.7734466742511,334.9343259995918 L866.3472396594352,351.583333333332 L876.0431105976429,368.7774830232298 L884.8329587448271,386.47047512698794 L892.6911254568674,404.6145614609435 L899.5944688111972,423.1606744268313 L905.522431431555,442.05855968245476 L910.4571013179165,461.2569122976197 L914.3832655025868,480.7035160264997 L917.2884563728772,500.3453853183605 L919.1629905207324,520.128909680491 L920.0,539.9999999999995"/></g></svg>