<svg xmlns="http://www.w3.org/2000/svg" viewBox="0 0 1080 1080" width="1080" height="1080">
<defs>
  <radialGradient id="glow" cx="50%" cy="50%" r="50%">
    <stop offset="0%" stop-color="#FFD580" stop-opacity="0.9"/>
    <stop offset="100%" stop-color="#FF8C00" stop-opacity="0.0"/>
  </radialGradient>
  <filter id="blur" x="-50%" y="-50%" width="200%" height="200%">
    <feGaussianBlur stdDeviation="6"/>
  </filter>
</defs>
<rect width="100%" height="100%" fill="black"/>
<g stroke="url(#glow)" stroke-width="3" fill="none" filter="url(#blur)">
<g transform="rotate(-90 540 540)"><path d="M548.0,540.0 Q553.6277951717572,545.2312204432669 555.750723565766,554.182015199233 Q552.6173192762387,564.7628833628587 543.5946688653999,574.2009896776608 Q529.3918555267962,579.5901341480276 512.0307869174804,578.4963192165857 Q494.55964441935856,569.5093119516634 480.5494050753872,552.636614046413 Q473.4534104565743,529.4600556596579 475.93711679634663,503.01327713730717 Q489.29515874251587,477.3847357085717 513.0635649570595,457.09817731815156 Q544.9073060292276,446.363022887796 580.8212381296879,448.3139980044198 Q615.6322605254866,464.3677394745133 643.7399503290716,493.8119983010146 Q659.9901896765632,533.7115806233004 660.548507957592,579.1685845869108 Q643.6320618185356,623.919588987728 609.9734457253857,661.1975631770313 Q562.9245691670359,684.7400333016451 508.1600750438131,689.7950696324119 Q452.9999459419522,673.9683350939628 405.43113099865593,637.7700062750588 Q372.95895570111213,584.7585129227384 361.45253049140905,521.2339047586778 Q374.15846728232725,455.49951849718303 411.04137027205957,396.7769319289256 Q468.5690278434081,353.9159555544154 539.9999999999999,334.079662823843 Q616.1595258504007,341.5976520348562 686.6165704246646,377.1658020050319 Q741.111195056376,437.5287279405379 771.03709853802,515.7170224401605 Q770.766499374318,601.833697147506 738.6172355245164,684.3038684034182 "/></g><g transform="rotate(30 540 540)"><path d="M548.0,540.0 Q553.6277951717572,545.2312204432669 555.750723565766,554.182015199233 Q552.6173192762387,564.7628833628587 543.5946688653999,574.2009896776608 Q529.3918555267962,579.5901341480276 512.0307869174804,578.4963192165857 Q494.55964441935856,569.5093119516634 480.5494050753872,552.636614046413 Q473.4534104565743,529.4600556596579 475.93711679634663,503.01327713730717 Q489.29515874251587,477.3847357085717 513.0635649570595,457.09817731815156 Q544.9073060292276,446.363022887796 580.8212381296879,448.3139980044198 Q615.6322605254866,464.3677394745133 643.7399503290716,493.8119983010146 Q659.9901896765632,533.7115806233004 660.548507957592,579.1685845869108 Q643.6320618185356,623.919588987728 609.9734457253857,661.1975631770313 Q562.9245691670359,684.7400333016451 508.1600750438131,689.7950696324119 Q452.9999459419522,673.9683350939628 405.43113099865593,637.7700062750588 Q372.95895570111213,584.7585129227384 361.45253049140905,521.2339047586778 Q374.15846728232725,455.49951849718303 411.04137027205957,396.7769319289256 Q468.5690278434081,353.9159555544154 539.9999999999999,334.079662823843 Q616.1595258504007,341.5976520348562 686.6165704246646,377.1658020050319 Q741.111195056376,437.5287279405379 771.03709853802,515.7170224401605 Q770.766499374318,601.833697147506 738.6172355245164,684.3038684034182 "/></g><g transform="rotate(150 540 540)"><path d="M548.0,540.0 Q553.6277951717572,545.2312204432669 555.750723565766,554.182015199233 Q552.6173192762387,564.7628833628587 543.5946688653999,574.2009896776608 Q529.3918555267962,579.5901341480276 512.0307869174804,578.4963192165857 Q494.55964441935856,569.5093119516634 480.5494050753872,552.636614046413 Q473.4534104565743,529.4600556596579 475.93711679634663,503.01327713730717 Q489.29515874251587,477.3847357085717 513.0635649570595,457.09817731815156 Q544.9073060292276,446.363022887796 580.8212381296879,448.3139980044198 Q615.6322605254866,464.3677394745133 643.7399503290716,493.8119983010146 Q659.9901896765632,533.7115806233004 660.548507957592,579.1685845869108 Q643.6320618185356,623.919588987728 609.9734457253857,661.1975631770313 Q562.9245691670359,684.7400333016451 508.1600750438131,689.7950696324119 Q452.9999459419522,673.9683350939628 405.43113099865593,637.7700062750588 Q372.95895570111213,584.7585129227384 361.45253049140905,521.2339047586778 Q374.15846728232725,455.49951849718303 411.04137027205957,396.7769319289256 Q468.5690278434081,353.9159555544154 539.9999999999999,334.079662823843 Q616.1595258504007,341.5976520348562 686.6165704246646,377.1658020050319 Q741.111195056376,437.5287279405379 771.03709853802,515.7170224401605 Q770.766499374318,601.833697147506 738.6172355245164,684.3038684034182 "/></g><circle cx="540" cy="540" r="18"/></g></svg>